<mxfile host="app.diagrams.net" agent="Mozilla/5.0 (Windows NT 10.0; Win64; x64) AppleWebKit/537.36 (KHTML, like Gecko) Chrome/138.0.0.0 Safari/537.36" version="28.2.0">
  <diagram name="Page-1" id="YnKOzO6QdXpDK1xePWCF">
    <mxGraphModel dx="784" dy="1102" grid="1" gridSize="10" guides="1" tooltips="1" connect="1" arrows="1" fold="1" page="1" pageScale="1" pageWidth="827" pageHeight="1169" math="0" shadow="0">
      <root>
        <mxCell id="0" />
        <mxCell id="1" parent="0" />
        <mxCell id="3ZPPji94Y3YU8Jwg-GKG-13" style="rounded=0;orthogonalLoop=1;jettySize=auto;html=1;endArrow=none;endFill=0;" edge="1" parent="1" source="3ZPPji94Y3YU8Jwg-GKG-1" target="3ZPPji94Y3YU8Jwg-GKG-9">
          <mxGeometry relative="1" as="geometry" />
        </mxCell>
        <mxCell id="3ZPPji94Y3YU8Jwg-GKG-14" value="1" style="edgeLabel;html=1;align=center;verticalAlign=middle;resizable=0;points=[];" vertex="1" connectable="0" parent="3ZPPji94Y3YU8Jwg-GKG-13">
          <mxGeometry x="-0.7844" relative="1" as="geometry">
            <mxPoint x="10" as="offset" />
          </mxGeometry>
        </mxCell>
        <mxCell id="3ZPPji94Y3YU8Jwg-GKG-15" value="1.. *" style="edgeLabel;html=1;align=center;verticalAlign=middle;resizable=0;points=[];" vertex="1" connectable="0" parent="3ZPPji94Y3YU8Jwg-GKG-13">
          <mxGeometry x="0.7126" y="3" relative="1" as="geometry">
            <mxPoint x="17" as="offset" />
          </mxGeometry>
        </mxCell>
        <mxCell id="3ZPPji94Y3YU8Jwg-GKG-40" style="rounded=0;orthogonalLoop=1;jettySize=auto;html=1;endArrow=none;endFill=0;" edge="1" parent="1" source="3ZPPji94Y3YU8Jwg-GKG-1" target="3ZPPji94Y3YU8Jwg-GKG-24">
          <mxGeometry relative="1" as="geometry" />
        </mxCell>
        <mxCell id="3ZPPji94Y3YU8Jwg-GKG-41" value="0 .. *" style="edgeLabel;html=1;align=center;verticalAlign=middle;resizable=0;points=[];" vertex="1" connectable="0" parent="3ZPPji94Y3YU8Jwg-GKG-40">
          <mxGeometry x="-0.7392" y="-1" relative="1" as="geometry">
            <mxPoint x="-21" y="3" as="offset" />
          </mxGeometry>
        </mxCell>
        <mxCell id="3ZPPji94Y3YU8Jwg-GKG-42" value="1" style="edgeLabel;html=1;align=center;verticalAlign=middle;resizable=0;points=[];" vertex="1" connectable="0" parent="3ZPPji94Y3YU8Jwg-GKG-40">
          <mxGeometry x="0.7936" y="-3" relative="1" as="geometry">
            <mxPoint x="4" y="-16" as="offset" />
          </mxGeometry>
        </mxCell>
        <mxCell id="3ZPPji94Y3YU8Jwg-GKG-1" value="User" style="swimlane;fontStyle=1;align=center;verticalAlign=top;childLayout=stackLayout;horizontal=1;startSize=26;horizontalStack=0;resizeParent=1;resizeParentMax=0;resizeLast=0;collapsible=1;marginBottom=0;whiteSpace=wrap;html=1;" vertex="1" parent="1">
          <mxGeometry x="24" y="90" width="426" height="164" as="geometry" />
        </mxCell>
        <mxCell id="3ZPPji94Y3YU8Jwg-GKG-2" value="- identifiant : String" style="text;strokeColor=none;fillColor=none;align=left;verticalAlign=top;spacingLeft=4;spacingRight=4;overflow=hidden;rotatable=0;points=[[0,0.5],[1,0.5]];portConstraint=eastwest;whiteSpace=wrap;html=1;" vertex="1" parent="3ZPPji94Y3YU8Jwg-GKG-1">
          <mxGeometry y="26" width="426" height="26" as="geometry" />
        </mxCell>
        <mxCell id="3ZPPji94Y3YU8Jwg-GKG-6" value="- password : String" style="text;strokeColor=none;fillColor=none;align=left;verticalAlign=top;spacingLeft=4;spacingRight=4;overflow=hidden;rotatable=0;points=[[0,0.5],[1,0.5]];portConstraint=eastwest;whiteSpace=wrap;html=1;" vertex="1" parent="3ZPPji94Y3YU8Jwg-GKG-1">
          <mxGeometry y="52" width="426" height="26" as="geometry" />
        </mxCell>
        <mxCell id="3ZPPji94Y3YU8Jwg-GKG-3" value="" style="line;strokeWidth=1;fillColor=none;align=left;verticalAlign=middle;spacingTop=-1;spacingLeft=3;spacingRight=3;rotatable=0;labelPosition=right;points=[];portConstraint=eastwest;strokeColor=inherit;" vertex="1" parent="3ZPPji94Y3YU8Jwg-GKG-1">
          <mxGeometry y="78" width="426" height="8" as="geometry" />
        </mxCell>
        <mxCell id="3ZPPji94Y3YU8Jwg-GKG-4" value="+ seConnecter(identifiant : String, password : String) : bool&amp;nbsp;" style="text;strokeColor=none;fillColor=none;align=left;verticalAlign=top;spacingLeft=4;spacingRight=4;overflow=hidden;rotatable=0;points=[[0,0.5],[1,0.5]];portConstraint=eastwest;whiteSpace=wrap;html=1;" vertex="1" parent="3ZPPji94Y3YU8Jwg-GKG-1">
          <mxGeometry y="86" width="426" height="26" as="geometry" />
        </mxCell>
        <mxCell id="3ZPPji94Y3YU8Jwg-GKG-7" value="+ effectuerMouvement(type : String, quantite : Int, produit : Produit) : void" style="text;strokeColor=none;fillColor=none;align=left;verticalAlign=top;spacingLeft=4;spacingRight=4;overflow=hidden;rotatable=0;points=[[0,0.5],[1,0.5]];portConstraint=eastwest;whiteSpace=wrap;html=1;" vertex="1" parent="3ZPPji94Y3YU8Jwg-GKG-1">
          <mxGeometry y="112" width="426" height="26" as="geometry" />
        </mxCell>
        <mxCell id="3ZPPji94Y3YU8Jwg-GKG-8" value="+ genererRapport() : Rapport" style="text;strokeColor=none;fillColor=none;align=left;verticalAlign=top;spacingLeft=4;spacingRight=4;overflow=hidden;rotatable=0;points=[[0,0.5],[1,0.5]];portConstraint=eastwest;whiteSpace=wrap;html=1;" vertex="1" parent="3ZPPji94Y3YU8Jwg-GKG-1">
          <mxGeometry y="138" width="426" height="26" as="geometry" />
        </mxCell>
        <mxCell id="3ZPPji94Y3YU8Jwg-GKG-9" value="Role" style="swimlane;fontStyle=1;align=center;verticalAlign=top;childLayout=stackLayout;horizontal=1;startSize=26;horizontalStack=0;resizeParent=1;resizeParentMax=0;resizeLast=0;collapsible=1;marginBottom=0;whiteSpace=wrap;html=1;" vertex="1" parent="1">
          <mxGeometry x="10" y="320" width="160" height="60" as="geometry" />
        </mxCell>
        <mxCell id="3ZPPji94Y3YU8Jwg-GKG-10" value="- nom :String" style="text;strokeColor=none;fillColor=none;align=left;verticalAlign=top;spacingLeft=4;spacingRight=4;overflow=hidden;rotatable=0;points=[[0,0.5],[1,0.5]];portConstraint=eastwest;whiteSpace=wrap;html=1;" vertex="1" parent="3ZPPji94Y3YU8Jwg-GKG-9">
          <mxGeometry y="26" width="160" height="26" as="geometry" />
        </mxCell>
        <mxCell id="3ZPPji94Y3YU8Jwg-GKG-11" value="" style="line;strokeWidth=1;fillColor=none;align=left;verticalAlign=middle;spacingTop=-1;spacingLeft=3;spacingRight=3;rotatable=0;labelPosition=right;points=[];portConstraint=eastwest;strokeColor=inherit;" vertex="1" parent="3ZPPji94Y3YU8Jwg-GKG-9">
          <mxGeometry y="52" width="160" height="8" as="geometry" />
        </mxCell>
        <mxCell id="3ZPPji94Y3YU8Jwg-GKG-47" style="rounded=0;orthogonalLoop=1;jettySize=auto;html=1;endArrow=none;endFill=0;" edge="1" parent="1" source="3ZPPji94Y3YU8Jwg-GKG-16" target="3ZPPji94Y3YU8Jwg-GKG-20">
          <mxGeometry relative="1" as="geometry" />
        </mxCell>
        <mxCell id="3ZPPji94Y3YU8Jwg-GKG-48" value="1" style="edgeLabel;html=1;align=center;verticalAlign=middle;resizable=0;points=[];" vertex="1" connectable="0" parent="3ZPPji94Y3YU8Jwg-GKG-47">
          <mxGeometry x="-0.6875" y="-2" relative="1" as="geometry">
            <mxPoint x="-1" y="-15" as="offset" />
          </mxGeometry>
        </mxCell>
        <mxCell id="3ZPPji94Y3YU8Jwg-GKG-49" value="0 .. *" style="edgeLabel;html=1;align=center;verticalAlign=middle;resizable=0;points=[];" vertex="1" connectable="0" parent="3ZPPji94Y3YU8Jwg-GKG-47">
          <mxGeometry x="0.7" y="1" relative="1" as="geometry">
            <mxPoint y="-16" as="offset" />
          </mxGeometry>
        </mxCell>
        <mxCell id="3ZPPji94Y3YU8Jwg-GKG-16" value="Produit" style="swimlane;fontStyle=1;align=center;verticalAlign=top;childLayout=stackLayout;horizontal=1;startSize=26;horizontalStack=0;resizeParent=1;resizeParentMax=0;resizeLast=0;collapsible=1;marginBottom=0;whiteSpace=wrap;html=1;" vertex="1" parent="1">
          <mxGeometry x="440" y="585" width="320" height="138" as="geometry" />
        </mxCell>
        <mxCell id="3ZPPji94Y3YU8Jwg-GKG-17" value="- nom : String" style="text;strokeColor=none;fillColor=none;align=left;verticalAlign=top;spacingLeft=4;spacingRight=4;overflow=hidden;rotatable=0;points=[[0,0.5],[1,0.5]];portConstraint=eastwest;whiteSpace=wrap;html=1;" vertex="1" parent="3ZPPji94Y3YU8Jwg-GKG-16">
          <mxGeometry y="26" width="320" height="26" as="geometry" />
        </mxCell>
        <mxCell id="3ZPPji94Y3YU8Jwg-GKG-28" value="- quantite : Int = 0&amp;nbsp;" style="text;strokeColor=none;fillColor=none;align=left;verticalAlign=top;spacingLeft=4;spacingRight=4;overflow=hidden;rotatable=0;points=[[0,0.5],[1,0.5]];portConstraint=eastwest;whiteSpace=wrap;html=1;" vertex="1" parent="3ZPPji94Y3YU8Jwg-GKG-16">
          <mxGeometry y="52" width="320" height="26" as="geometry" />
        </mxCell>
        <mxCell id="3ZPPji94Y3YU8Jwg-GKG-18" value="" style="line;strokeWidth=1;fillColor=none;align=left;verticalAlign=middle;spacingTop=-1;spacingLeft=3;spacingRight=3;rotatable=0;labelPosition=right;points=[];portConstraint=eastwest;strokeColor=inherit;" vertex="1" parent="3ZPPji94Y3YU8Jwg-GKG-16">
          <mxGeometry y="78" width="320" height="8" as="geometry" />
        </mxCell>
        <mxCell id="3ZPPji94Y3YU8Jwg-GKG-19" value="+ ajusterQuantite(mouvement : Mouvement) : void" style="text;strokeColor=none;fillColor=none;align=left;verticalAlign=top;spacingLeft=4;spacingRight=4;overflow=hidden;rotatable=0;points=[[0,0.5],[1,0.5]];portConstraint=eastwest;whiteSpace=wrap;html=1;" vertex="1" parent="3ZPPji94Y3YU8Jwg-GKG-16">
          <mxGeometry y="86" width="320" height="26" as="geometry" />
        </mxCell>
        <mxCell id="3ZPPji94Y3YU8Jwg-GKG-37" value="+ modifierProduit(nvxNom : String) : bool" style="text;strokeColor=none;fillColor=none;align=left;verticalAlign=top;spacingLeft=4;spacingRight=4;overflow=hidden;rotatable=0;points=[[0,0.5],[1,0.5]];portConstraint=eastwest;whiteSpace=wrap;html=1;" vertex="1" parent="3ZPPji94Y3YU8Jwg-GKG-16">
          <mxGeometry y="112" width="320" height="26" as="geometry" />
        </mxCell>
        <mxCell id="3ZPPji94Y3YU8Jwg-GKG-20" value="Catégorie" style="swimlane;fontStyle=1;align=center;verticalAlign=top;childLayout=stackLayout;horizontal=1;startSize=26;horizontalStack=0;resizeParent=1;resizeParentMax=0;resizeLast=0;collapsible=1;marginBottom=0;whiteSpace=wrap;html=1;" vertex="1" parent="1">
          <mxGeometry x="40" y="599" width="260" height="112" as="geometry" />
        </mxCell>
        <mxCell id="3ZPPji94Y3YU8Jwg-GKG-21" value="- nom : String" style="text;strokeColor=none;fillColor=none;align=left;verticalAlign=top;spacingLeft=4;spacingRight=4;overflow=hidden;rotatable=0;points=[[0,0.5],[1,0.5]];portConstraint=eastwest;whiteSpace=wrap;html=1;" vertex="1" parent="3ZPPji94Y3YU8Jwg-GKG-20">
          <mxGeometry y="26" width="260" height="26" as="geometry" />
        </mxCell>
        <mxCell id="3ZPPji94Y3YU8Jwg-GKG-22" value="" style="line;strokeWidth=1;fillColor=none;align=left;verticalAlign=middle;spacingTop=-1;spacingLeft=3;spacingRight=3;rotatable=0;labelPosition=right;points=[];portConstraint=eastwest;strokeColor=inherit;" vertex="1" parent="3ZPPji94Y3YU8Jwg-GKG-20">
          <mxGeometry y="52" width="260" height="8" as="geometry" />
        </mxCell>
        <mxCell id="3ZPPji94Y3YU8Jwg-GKG-23" value="+ ajouter categorie(nom : String) : Categorie" style="text;strokeColor=none;fillColor=none;align=left;verticalAlign=top;spacingLeft=4;spacingRight=4;overflow=hidden;rotatable=0;points=[[0,0.5],[1,0.5]];portConstraint=eastwest;whiteSpace=wrap;html=1;" vertex="1" parent="3ZPPji94Y3YU8Jwg-GKG-20">
          <mxGeometry y="60" width="260" height="26" as="geometry" />
        </mxCell>
        <mxCell id="3ZPPji94Y3YU8Jwg-GKG-36" value="+ supprimerCategorie() : void" style="text;strokeColor=none;fillColor=none;align=left;verticalAlign=top;spacingLeft=4;spacingRight=4;overflow=hidden;rotatable=0;points=[[0,0.5],[1,0.5]];portConstraint=eastwest;whiteSpace=wrap;html=1;" vertex="1" parent="3ZPPji94Y3YU8Jwg-GKG-20">
          <mxGeometry y="86" width="260" height="26" as="geometry" />
        </mxCell>
        <mxCell id="3ZPPji94Y3YU8Jwg-GKG-43" style="rounded=0;orthogonalLoop=1;jettySize=auto;html=1;endArrow=none;endFill=0;" edge="1" parent="1" source="3ZPPji94Y3YU8Jwg-GKG-24" target="3ZPPji94Y3YU8Jwg-GKG-16">
          <mxGeometry relative="1" as="geometry" />
        </mxCell>
        <mxCell id="3ZPPji94Y3YU8Jwg-GKG-44" value="1" style="edgeLabel;html=1;align=center;verticalAlign=middle;resizable=0;points=[];" vertex="1" connectable="0" parent="3ZPPji94Y3YU8Jwg-GKG-43">
          <mxGeometry x="-0.7432" y="-1" relative="1" as="geometry">
            <mxPoint x="13" as="offset" />
          </mxGeometry>
        </mxCell>
        <mxCell id="3ZPPji94Y3YU8Jwg-GKG-45" value="1 .. *" style="edgeLabel;html=1;align=center;verticalAlign=middle;resizable=0;points=[];" vertex="1" connectable="0" parent="3ZPPji94Y3YU8Jwg-GKG-43">
          <mxGeometry x="0.7592" y="2" relative="1" as="geometry">
            <mxPoint x="22" as="offset" />
          </mxGeometry>
        </mxCell>
        <mxCell id="3ZPPji94Y3YU8Jwg-GKG-24" value="Mouvement" style="swimlane;fontStyle=1;align=center;verticalAlign=top;childLayout=stackLayout;horizontal=1;startSize=26;horizontalStack=0;resizeParent=1;resizeParentMax=0;resizeLast=0;collapsible=1;marginBottom=0;whiteSpace=wrap;html=1;" vertex="1" parent="1">
          <mxGeometry x="230" y="340" width="550" height="138" as="geometry" />
        </mxCell>
        <mxCell id="3ZPPji94Y3YU8Jwg-GKG-25" value="- type : String" style="text;strokeColor=none;fillColor=none;align=left;verticalAlign=top;spacingLeft=4;spacingRight=4;overflow=hidden;rotatable=0;points=[[0,0.5],[1,0.5]];portConstraint=eastwest;whiteSpace=wrap;html=1;" vertex="1" parent="3ZPPji94Y3YU8Jwg-GKG-24">
          <mxGeometry y="26" width="550" height="26" as="geometry" />
        </mxCell>
        <mxCell id="3ZPPji94Y3YU8Jwg-GKG-34" value="- date : Datetime" style="text;strokeColor=none;fillColor=none;align=left;verticalAlign=top;spacingLeft=4;spacingRight=4;overflow=hidden;rotatable=0;points=[[0,0.5],[1,0.5]];portConstraint=eastwest;whiteSpace=wrap;html=1;" vertex="1" parent="3ZPPji94Y3YU8Jwg-GKG-24">
          <mxGeometry y="52" width="550" height="26" as="geometry" />
        </mxCell>
        <mxCell id="3ZPPji94Y3YU8Jwg-GKG-33" value="- quantite : Int" style="text;strokeColor=none;fillColor=none;align=left;verticalAlign=top;spacingLeft=4;spacingRight=4;overflow=hidden;rotatable=0;points=[[0,0.5],[1,0.5]];portConstraint=eastwest;whiteSpace=wrap;html=1;" vertex="1" parent="3ZPPji94Y3YU8Jwg-GKG-24">
          <mxGeometry y="78" width="550" height="26" as="geometry" />
        </mxCell>
        <mxCell id="3ZPPji94Y3YU8Jwg-GKG-26" value="" style="line;strokeWidth=1;fillColor=none;align=left;verticalAlign=middle;spacingTop=-1;spacingLeft=3;spacingRight=3;rotatable=0;labelPosition=right;points=[];portConstraint=eastwest;strokeColor=inherit;" vertex="1" parent="3ZPPji94Y3YU8Jwg-GKG-24">
          <mxGeometry y="104" width="550" height="8" as="geometry" />
        </mxCell>
        <mxCell id="3ZPPji94Y3YU8Jwg-GKG-27" value="+ ajouterMouvement(type : String, quantite : Int, produit : Produit, Utilisateur : User ): Mouvement" style="text;strokeColor=none;fillColor=none;align=left;verticalAlign=top;spacingLeft=4;spacingRight=4;overflow=hidden;rotatable=0;points=[[0,0.5],[1,0.5]];portConstraint=eastwest;whiteSpace=wrap;html=1;" vertex="1" parent="3ZPPji94Y3YU8Jwg-GKG-24">
          <mxGeometry y="112" width="550" height="26" as="geometry" />
        </mxCell>
        <mxCell id="3ZPPji94Y3YU8Jwg-GKG-50" value="Rapport" style="swimlane;fontStyle=1;align=center;verticalAlign=top;childLayout=stackLayout;horizontal=1;startSize=26;horizontalStack=0;resizeParent=1;resizeParentMax=0;resizeLast=0;collapsible=1;marginBottom=0;whiteSpace=wrap;html=1;" vertex="1" parent="1">
          <mxGeometry x="540" y="140" width="260" height="138" as="geometry" />
        </mxCell>
        <mxCell id="3ZPPji94Y3YU8Jwg-GKG-51" value="- date: Datetime" style="text;strokeColor=none;fillColor=none;align=left;verticalAlign=top;spacingLeft=4;spacingRight=4;overflow=hidden;rotatable=0;points=[[0,0.5],[1,0.5]];portConstraint=eastwest;whiteSpace=wrap;html=1;" vertex="1" parent="3ZPPji94Y3YU8Jwg-GKG-50">
          <mxGeometry y="26" width="260" height="26" as="geometry" />
        </mxCell>
        <mxCell id="3ZPPji94Y3YU8Jwg-GKG-54" value="- contenu : JSON" style="text;strokeColor=none;fillColor=none;align=left;verticalAlign=top;spacingLeft=4;spacingRight=4;overflow=hidden;rotatable=0;points=[[0,0.5],[1,0.5]];portConstraint=eastwest;whiteSpace=wrap;html=1;" vertex="1" parent="3ZPPji94Y3YU8Jwg-GKG-50">
          <mxGeometry y="52" width="260" height="26" as="geometry" />
        </mxCell>
        <mxCell id="3ZPPji94Y3YU8Jwg-GKG-52" value="" style="line;strokeWidth=1;fillColor=none;align=left;verticalAlign=middle;spacingTop=-1;spacingLeft=3;spacingRight=3;rotatable=0;labelPosition=right;points=[];portConstraint=eastwest;strokeColor=inherit;" vertex="1" parent="3ZPPji94Y3YU8Jwg-GKG-50">
          <mxGeometry y="78" width="260" height="8" as="geometry" />
        </mxCell>
        <mxCell id="3ZPPji94Y3YU8Jwg-GKG-53" value="+ genererEtatStockParCategorie(): JSON" style="text;strokeColor=none;fillColor=none;align=left;verticalAlign=top;spacingLeft=4;spacingRight=4;overflow=hidden;rotatable=0;points=[[0,0.5],[1,0.5]];portConstraint=eastwest;whiteSpace=wrap;html=1;" vertex="1" parent="3ZPPji94Y3YU8Jwg-GKG-50">
          <mxGeometry y="86" width="260" height="26" as="geometry" />
        </mxCell>
        <mxCell id="3ZPPji94Y3YU8Jwg-GKG-55" value="+ genererHistoriqueMouvements() :JSON" style="text;strokeColor=none;fillColor=none;align=left;verticalAlign=top;spacingLeft=4;spacingRight=4;overflow=hidden;rotatable=0;points=[[0,0.5],[1,0.5]];portConstraint=eastwest;whiteSpace=wrap;html=1;" vertex="1" parent="3ZPPji94Y3YU8Jwg-GKG-50">
          <mxGeometry y="112" width="260" height="26" as="geometry" />
        </mxCell>
      </root>
    </mxGraphModel>
  </diagram>
</mxfile>
